name rise44.8762peak52.3436fall86.788.mot
datacolumns 19
datarows 27
range 15.97660000000000 16.01993900000000
endheader
time	ground_force1_vx	ground_force1_vy	ground_force1_vz	ground_force1_px	ground_force1_py	ground_force1_pz	ground_force2_vx	ground_force2_vy	ground_force2_vz	ground_force2_px	ground_force2_py	ground_force2_pz	ground_torque1_x	ground_torque1_y	ground_torque1_z	ground_torque2_x	ground_torque2_y	ground_torque2_z	
15.97660000000000	48.13038500000000	745.54270099999997	59.73402700000000	0.24702900000000	0.00000000000000	0.12106900000000	0.00000000000000	0.00000000000000	0.00000000000000	0.00000000000000	0.00000000000000	0.00000000000000	0.00000000000000	17.36608000000000	0.00000000000000	0.00000000000000	0.00000000000000	0.00000000000000	
15.97827100000000	47.33896500000000	748.27836800000000	59.96424200000000	0.24585800000000	0.00000000000000	0.12110700000000	0.00000000000000	0.00000000000000	0.00000000000000	0.00000000000000	0.00000000000000	0.00000000000000	0.00000000000000	17.50734900000000	0.00000000000000	0.00000000000000	0.00000000000000	0.00000000000000	
15.97993400000000	46.55803800000000	750.90723500000001	60.18638300000000	0.24470400000000	0.00000000000000	0.12114400000000	0.00000000000000	0.00000000000000	0.00000000000000	0.00000000000000	0.00000000000000	0.00000000000000	0.00000000000000	17.64420100000000	0.00000000000000	0.00000000000000	0.00000000000000	0.00000000000000	
15.98160200000000	45.78783900000000	753.42747699999995	60.39983200000000	0.24356400000000	0.00000000000000	0.12118100000000	0.00000000000000	0.00000000000000	0.00000000000000	0.00000000000000	0.00000000000000	0.00000000000000	0.00000000000000	17.77629200000000	0.00000000000000	0.00000000000000	0.00000000000000	0.00000000000000	
15.98327000000000	45.02850100000000	755.83736199999998	60.60393600000000	0.24243800000000	0.00000000000000	0.12121700000000	0.00000000000000	0.00000000000000	0.00000000000000	0.00000000000000	0.00000000000000	0.00000000000000	0.00000000000000	17.90326900000000	0.00000000000000	0.00000000000000	0.00000000000000	0.00000000000000	
15.98494100000000	44.28007000000000	758.13526300000001	60.79801700000000	0.24132300000000	0.00000000000000	0.12125300000000	0.00000000000000	0.00000000000000	0.00000000000000	0.00000000000000	0.00000000000000	0.00000000000000	0.00000000000000	18.02478100000000	0.00000000000000	0.00000000000000	0.00000000000000	0.00000000000000	
15.98660700000000	43.54250500000000	760.31967299999997	60.98137600000000	0.24021700000000	0.00000000000000	0.12128900000000	0.00000000000000	0.00000000000000	0.00000000000000	0.00000000000000	0.00000000000000	0.00000000000000	0.00000000000000	18.14047300000000	0.00000000000000	0.00000000000000	0.00000000000000	0.00000000000000	
15.98827400000000	42.81568500000000	762.38921400000004	61.15329800000000	0.23911900000000	0.00000000000000	0.12132400000000	0.00000000000000	0.00000000000000	0.00000000000000	0.00000000000000	0.00000000000000	0.00000000000000	0.00000000000000	18.24999500000000	0.00000000000000	0.00000000000000	0.00000000000000	0.00000000000000	
15.98994000000000	42.09941600000000	764.34264900000005	61.31306400000000	0.23802600000000	0.00000000000000	0.12135900000000	0.00000000000000	0.00000000000000	0.00000000000000	0.00000000000000	0.00000000000000	0.00000000000000	0.00000000000000	18.35300200000000	0.00000000000000	0.00000000000000	0.00000000000000	0.00000000000000	
15.99160800000000	41.39343700000000	766.17889300000002	61.45995200000000	0.23693800000000	0.00000000000000	0.12139400000000	0.00000000000000	0.00000000000000	0.00000000000000	0.00000000000000	0.00000000000000	0.00000000000000	0.00000000000000	18.44915800000000	0.00000000000000	0.00000000000000	0.00000000000000	0.00000000000000	
15.99327300000000	40.69742700000000	767.89702000000000	61.59324400000000	0.23585100000000	0.00000000000000	0.12142800000000	0.00000000000000	0.00000000000000	0.00000000000000	0.00000000000000	0.00000000000000	0.00000000000000	0.00000000000000	18.53813800000000	0.00000000000000	0.00000000000000	0.00000000000000	0.00000000000000	
15.99493500000000	40.01101400000000	769.49627499999997	61.71223800000000	0.23476400000000	0.00000000000000	0.12146200000000	0.00000000000000	0.00000000000000	0.00000000000000	0.00000000000000	0.00000000000000	0.00000000000000	0.00000000000000	18.61963100000000	0.00000000000000	0.00000000000000	0.00000000000000	0.00000000000000	
15.99660600000000	39.33377700000000	770.97607800000003	61.81624800000000	0.23367500000000	0.00000000000000	0.12149500000000	0.00000000000000	0.00000000000000	0.00000000000000	0.00000000000000	0.00000000000000	0.00000000000000	0.00000000000000	18.69334300000000	0.00000000000000	0.00000000000000	0.00000000000000	0.00000000000000	
15.99826800000000	38.66525700000000	772.33603300000004	61.90461200000000	0.23258200000000	0.00000000000000	0.12152900000000	0.00000000000000	0.00000000000000	0.00000000000000	0.00000000000000	0.00000000000000	0.00000000000000	0.00000000000000	18.75899900000000	0.00000000000000	0.00000000000000	0.00000000000000	0.00000000000000	
15.99994200000000	38.00496400000000	773.57592999999997	61.97670000000000	0.23148400000000	0.00000000000000	0.12156200000000	0.00000000000000	0.00000000000000	0.00000000000000	0.00000000000000	0.00000000000000	0.00000000000000	0.00000000000000	18.81634500000000	0.00000000000000	0.00000000000000	0.00000000000000	0.00000000000000	
16.00160200000000	37.35238100000000	774.69575599999996	62.03191800000000	0.23037800000000	0.00000000000000	0.12159400000000	0.00000000000000	0.00000000000000	0.00000000000000	0.00000000000000	0.00000000000000	0.00000000000000	0.00000000000000	18.86515200000000	0.00000000000000	0.00000000000000	0.00000000000000	0.00000000000000	
16.00327500000000	36.70697400000000	775.69569200000001	62.06971100000000	0.22926400000000	0.00000000000000	0.12162700000000	0.00000000000000	0.00000000000000	0.00000000000000	0.00000000000000	0.00000000000000	0.00000000000000	0.00000000000000	18.90521400000000	0.00000000000000	0.00000000000000	0.00000000000000	0.00000000000000	
16.00493900000000	36.06819600000000	776.57611799999995	62.08957300000000	0.22814000000000	0.00000000000000	0.12165800000000	0.00000000000000	0.00000000000000	0.00000000000000	0.00000000000000	0.00000000000000	0.00000000000000	0.00000000000000	18.93635600000000	0.00000000000000	0.00000000000000	0.00000000000000	0.00000000000000	
16.00660900000000	35.43549500000000	777.33761800000002	62.09105000000000	0.22700400000000	0.00000000000000	0.12169000000000	0.00000000000000	0.00000000000000	0.00000000000000	0.00000000000000	0.00000000000000	0.00000000000000	0.00000000000000	18.95843100000000	0.00000000000000	0.00000000000000	0.00000000000000	0.00000000000000	
16.00827200000000	34.80832100000000	777.98097499999994	62.07374000000000	0.22585400000000	0.00000000000000	0.12172100000000	0.00000000000000	0.00000000000000	0.00000000000000	0.00000000000000	0.00000000000000	0.00000000000000	0.00000000000000	18.97132100000000	0.00000000000000	0.00000000000000	0.00000000000000	0.00000000000000	
16.00993500000000	34.18613000000000	778.50717599999996	62.03730400000000	0.22469100000000	0.00000000000000	0.12175200000000	0.00000000000000	0.00000000000000	0.00000000000000	0.00000000000000	0.00000000000000	0.00000000000000	0.00000000000000	18.97494200000000	0.00000000000000	0.00000000000000	0.00000000000000	0.00000000000000	
16.01160900000000	33.56838800000000	778.91740800000002	61.98146300000000	0.22351300000000	0.00000000000000	0.12178200000000	0.00000000000000	0.00000000000000	0.00000000000000	0.00000000000000	0.00000000000000	0.00000000000000	0.00000000000000	18.96924100000000	0.00000000000000	0.00000000000000	0.00000000000000	0.00000000000000	
16.01326900000000	32.95458300000000	779.21305700000005	61.90600600000000	0.22231800000000	0.00000000000000	0.12181200000000	0.00000000000000	0.00000000000000	0.00000000000000	0.00000000000000	0.00000000000000	0.00000000000000	0.00000000000000	18.95420000000000	0.00000000000000	0.00000000000000	0.00000000000000	0.00000000000000	
16.01493900000000	32.34422400000000	779.39570700000002	61.81078900000000	0.22110600000000	0.00000000000000	0.12184200000000	0.00000000000000	0.00000000000000	0.00000000000000	0.00000000000000	0.00000000000000	0.00000000000000	0.00000000000000	18.92983300000000	0.00000000000000	0.00000000000000	0.00000000000000	0.00000000000000	
16.01660200000000	31.73684500000000	779.46713299999999	61.69574000000000	0.21987700000000	0.00000000000000	0.12187100000000	0.00000000000000	0.00000000000000	0.00000000000000	0.00000000000000	0.00000000000000	0.00000000000000	0.00000000000000	18.89619100000000	0.00000000000000	0.00000000000000	0.00000000000000	0.00000000000000	
16.01827500000000	31.13201300000000	779.42930000000001	61.56085800000000	0.21863000000000	0.00000000000000	0.12189900000000	0.00000000000000	0.00000000000000	0.00000000000000	0.00000000000000	0.00000000000000	0.00000000000000	0.00000000000000	18.85335500000000	0.00000000000000	0.00000000000000	0.00000000000000	0.00000000000000	
16.01993900000000	30.52933200000000	779.28435800000000	61.40621600000000	0.21736400000000	0.00000000000000	0.12192700000000	0.00000000000000	0.00000000000000	0.00000000000000	0.00000000000000	0.00000000000000	0.00000000000000	0.00000000000000	18.80144300000000	0.00000000000000	0.00000000000000	0.00000000000000	0.00000000000000	
